<svg width="427" height="90" viewBox="0 0 427 90" fill="none" xmlns="http://www.w3.org/2000/svg">
<path fill-rule="evenodd" clip-rule="evenodd" d="M87.1405 88.3794C85.8316 88.3794 85.1757 87.7238 85.1757 86.4155V8.54912C85.1757 7.24076 85.8316 6.58513 87.1405 6.58513H96.6122C98.0742 6.58513 99.1925 7.0848 99.9639 8.08701L124.914 38.3555L150.096 8.08701C150.868 7.0848 151.945 6.58513 153.332 6.58513H162.688C163.997 6.58513 164.653 7.24076 164.653 8.54912V86.4155C164.653 87.7238 163.997 88.3794 162.688 88.3794H151.599C150.29 88.3794 149.634 87.7238 149.634 86.4155V29.4598L126.414 57.4178C125.952 58.0329 125.432 58.3218 124.854 58.2842C124.276 58.2467 123.759 57.9578 123.296 57.4178L100.192 29.5753V86.4155C100.192 87.7238 99.5392 88.3794 98.2274 88.3794H87.1405V88.3794ZM211.402 88.3794C210.087 88.3794 209.428 87.7238 209.428 86.4155V83.9893C207.573 85.5288 205.354 86.84 202.762 87.9173C200.173 88.9946 197.333 89.5347 194.241 89.5347C191.818 89.5426 189.41 89.1523 187.113 88.3794C184.896 87.6443 182.832 86.5087 181.025 85.0291C179.246 83.5627 177.803 81.7305 176.795 79.657C175.749 77.54 175.229 75.1312 175.229 72.4365C175.229 69.5107 175.807 66.9287 176.968 64.6961C178.113 62.48 179.736 60.5463 181.721 59.0352C183.73 57.4957 186.087 56.3202 188.792 55.5115C191.499 54.7028 194.397 54.2985 197.489 54.2985C199.885 54.2985 202.049 54.492 203.982 54.8761C205.912 55.2603 207.729 55.7628 209.428 56.378V54.7606C209.428 51.0637 208.579 48.5423 206.88 47.1935C205.178 45.8447 202.395 45.1717 198.529 45.1717C193.973 45.1717 189.529 46.1335 185.2 48.0599C183.886 48.6751 182.996 48.369 182.533 47.1357L179.982 40.0885C179.751 39.4733 179.693 38.9534 179.809 38.5288C179.924 38.1042 180.369 37.6999 181.141 37.3158C182.068 36.8536 183.227 36.4118 184.619 35.9872C189.545 34.5008 194.661 33.7419 199.807 33.7344C207.692 33.7344 213.546 35.3893 217.372 38.7021C221.197 42.0149 223.11 47.6758 223.11 55.6848V86.4155C223.11 87.7238 222.454 88.3794 221.139 88.3794H211.402V88.3794ZM198.763 79.0216C200.742 79.0272 202.706 78.6749 204.56 77.9819C206.368 77.3174 208.024 76.2958 209.428 74.9781V65.2737C208.025 64.7083 206.57 64.2826 205.083 64.0029C203.535 63.6983 201.962 63.5436 200.384 63.5408C197.137 63.5408 194.49 64.1964 192.441 65.5048C190.393 66.8131 189.37 68.8175 189.37 71.5123C189.37 73.8228 190.237 75.6511 191.979 76.9999C193.718 78.3487 195.978 79.0216 198.761 79.0216H198.763ZM247.89 42.5146C249.823 39.5108 252.181 37.2955 254.963 35.8717C257.685 34.4615 260.708 33.7284 263.773 33.7344C265.475 33.7344 266.903 33.9279 268.064 34.312C269.145 34.6962 269.57 35.4298 269.339 36.5071L266.903 45.9804C266.672 47.2888 265.822 47.8289 264.354 47.5978C263.648 47.4294 262.931 47.3136 262.207 47.2512C261.418 47.1753 260.625 47.1368 259.832 47.1357C257.203 47.1357 254.885 47.7133 252.874 48.8686C250.926 49.9703 249.229 51.4654 247.89 53.2587V86.4155C247.89 87.7238 247.234 88.3794 245.919 88.3794H235.72C234.402 88.3794 233.746 87.7238 233.746 86.4155V37.7779C233.746 36.3915 234.365 35.5828 235.601 35.3518L245.685 33.8499C247.156 33.6188 247.89 34.1589 247.89 35.4673V42.5146V42.5146ZM328.653 34.8897C329.601 34.8897 330.156 35.1987 330.312 35.8139C330.471 36.4291 330.234 37.0472 329.601 37.6623L310.646 55.8004L331.141 85.6067C331.615 86.2999 331.713 86.9353 331.436 87.513C331.162 88.0906 330.589 88.3794 329.72 88.3794H317.873C316.451 88.3794 315.348 87.8393 314.556 86.762L299.987 65.1582L291.694 72.8986V86.4155C291.694 87.7238 291.024 88.3794 289.68 88.3794H279.258C277.915 88.3794 277.244 87.7238 277.244 86.4155V4.96773C277.244 3.73446 277.796 2.9662 278.903 2.65716L287.785 0.462115C288.259 0.309039 288.715 0.193511 289.149 0.115529C289.582 0.0375468 289.958 0 290.276 0C291.22 0 291.694 0.499661 291.694 1.50187V57.4178L313.374 36.276C313.824 35.8265 314.36 35.4721 314.949 35.2339C315.539 34.9957 316.171 34.8786 316.807 34.8897H328.653ZM380.158 85.7223C378.303 86.6465 375.697 87.513 372.334 88.3217C368.973 89.1304 365.514 89.5347 361.957 89.5347C357.785 89.5347 353.939 88.8618 350.423 87.513C346.906 86.1642 343.872 84.2782 341.321 81.8521C338.77 79.426 336.779 76.48 335.351 73.0141C333.921 69.5483 333.204 65.6983 333.204 61.4613C333.204 57.4553 333.921 53.7584 335.351 50.3705C336.709 47.0891 338.698 44.106 341.205 41.5903C343.697 39.1134 346.653 37.1507 349.903 35.8139C353.244 34.4242 356.83 33.7171 360.449 33.7344C363.928 33.7344 367.193 34.3322 370.244 35.5251C373.245 36.6832 375.971 38.4538 378.248 40.7239C380.528 42.9969 382.322 45.8071 383.637 49.1575C384.952 52.5078 385.608 56.378 385.608 60.7681V63.0787C385.608 64.387 384.952 65.0426 383.637 65.0426H347.582C348.201 68.9706 349.9 72.0697 352.682 74.3427C355.465 76.6157 359.059 77.7508 363.466 77.7508C367.707 77.7693 371.901 76.8625 375.755 75.0936C376.991 74.6315 377.878 74.9781 378.422 76.1334L381.204 82.7185C381.823 84.1049 381.473 85.1071 380.158 85.7223ZM360.105 44.9407C357.251 44.9111 354.471 45.8475 352.217 47.5978C349.9 49.3683 348.394 52.0255 347.698 55.5693H371.695C371.233 52.0255 369.958 49.3683 367.869 47.5978C365.783 45.8273 363.194 44.9407 360.102 44.9407H360.105ZM413.11 45.9804V71.1657C413.11 75.4027 414.849 77.5197 418.325 77.5197C418.944 77.5197 419.602 77.4244 420.296 77.2309C420.992 77.0374 421.573 76.8641 422.035 76.711C423.272 76.3269 424.087 76.711 424.471 77.8663L426.442 84.6825C426.595 85.2226 426.653 85.7223 426.615 86.1844C426.577 86.6465 426.133 87.0711 425.283 87.4552C424.355 87.9173 422.963 88.3794 421.108 88.8416C419.253 89.3037 417.207 89.5347 414.965 89.5347C409.553 89.5347 405.516 88.1282 402.849 85.3179C400.182 82.5077 398.847 78.444 398.847 73.1297V45.9804H392.008C390.693 45.9804 390.037 45.3248 390.037 44.0164V36.8536C390.037 35.5453 390.693 34.8897 392.008 34.8897H398.847V23.2213C398.847 22.066 399.31 21.2197 400.24 20.6796L410.093 15.1343C410.636 14.8252 411.139 14.6721 411.601 14.6721C412.607 14.6721 413.11 15.2122 413.11 16.2895V34.8897H425.283C426.829 34.8897 427.332 35.6608 426.788 37.2002L424.818 43.9009C424.587 44.7471 424.277 45.3075 423.893 45.5761C423.503 45.8447 422.885 45.9804 422.035 45.9804H413.107H413.11Z" fill="black"/>
<path fill-rule="evenodd" clip-rule="evenodd" d="M45.6044 71.4747C44.7896 71.4747 44.1424 71.3217 43.6627 71.0126C43.1362 70.6583 42.699 70.1867 42.3856 69.635L27.7389 48.1264V69.5194C27.7389 70.822 27.109 71.4747 25.852 71.4747H14.5282C13.2713 71.4747 12.6414 70.822 12.6414 69.5194V26.046C12.6414 24.7405 13.2713 24.0907 14.5282 24.0907H25.8492C27.1061 24.0907 27.736 24.7405 27.736 26.046V45.4837L42.3856 25.9305C42.7554 25.3153 43.183 24.856 43.6627 24.5499C44.1424 24.2437 44.7896 24.0878 45.6044 24.0878H58.0349C58.6995 24.0878 59.2022 24.3766 59.5345 24.9542C59.8668 25.5261 59.7368 26.1962 59.1445 26.9644L43.3853 46.6332L59.4796 68.5981C60.0691 69.3663 60.202 70.0364 59.8668 70.6112C59.7237 70.8818 59.507 71.1065 59.2417 71.2593C58.9763 71.4121 58.6732 71.4868 58.3672 71.4747H45.6044ZM0 81.3033C0 80.0123 0.65013 79.3682 1.95039 79.3682H70.7399C72.0401 79.3682 72.6874 80.0123 72.6874 81.3033V86.6466C72.6874 87.9376 72.0372 88.5817 70.7399 88.5817H1.95039C0.65013 88.5817 0 87.9405 0 86.6466V81.3033ZM0 8.64737C0 7.35922 0.65013 6.71515 1.95039 6.71515H70.7399C72.0401 6.71515 72.6874 7.35922 72.6874 8.65025V13.9935C72.6874 15.2816 72.0372 15.9286 70.7399 15.9286H1.95039C0.65013 15.9286 0 15.2816 0 13.9935V8.65025V8.64737Z" fill="#F86800"/>
</svg>
